<svg id="Ebene_4" data-name="Ebene 4" xmlns="http://www.w3.org/2000/svg" xmlns:xlink="http://www.w3.org/1999/xlink" width="4507.2" height="1024.08" viewBox="0 0 4507.2 1024.08">
  <defs>
    <style>
      .cls-1 {
        fill: url(#Unbenannter_Verlauf_12);
      }

      .cls-2 {
        fill: url(#Unbenannter_Verlauf_6);
      }

      .cls-3 {
        fill: url(#Unbenannter_Verlauf_16);
      }

      .cls-4 {
        fill: url(#Unbenannter_Verlauf_16-2);
      }

      .cls-5 {
        fill: url(#Unbenannter_Verlauf_16-3);
      }

      .cls-6 {
        fill: url(#Unbenannter_Verlauf_16-4);
      }

      .cls-7 {
        fill: url(#Unbenannter_Verlauf_16-5);
      }

      .cls-8 {
        fill: url(#Unbenannter_Verlauf_16-6);
      }

      .cls-9 {
        fill: url(#Unbenannter_Verlauf_16-7);
      }

      .cls-10 {
        fill: url(#Unbenannter_Verlauf_16-8);
      }

      .cls-11 {
        fill: url(#Unbenannter_Verlauf_16-9);
      }

      .cls-12 {
        fill: url(#Unbenannter_Verlauf_16-10);
      }
    </style>
    <linearGradient id="Unbenannter_Verlauf_12" data-name="Unbenannter Verlauf 12" x1="512.84" y1="655.54" x2="512.84" y2="368.38" gradientUnits="userSpaceOnUse">
      <stop offset="0" stop-color="#096fd2"/>
      <stop offset="1" stop-color="#0b7fdd"/>
    </linearGradient>
    <linearGradient id="Unbenannter_Verlauf_6" data-name="Unbenannter Verlauf 6" x1="512.1" y1="1024.08" x2="512.1" gradientUnits="userSpaceOnUse">
      <stop offset="0" stop-color="#0564c8"/>
      <stop offset="1" stop-color="#0e8ee9"/>
    </linearGradient>
    <linearGradient id="Unbenannter_Verlauf_16" data-name="Unbenannter Verlauf 16" x1="1411.82" y1="728.9" x2="1411.82" y2="293.09" gradientUnits="userSpaceOnUse">
      <stop offset="0" stop-color="#096fd2"/>
      <stop offset="1" stop-color="#0e8ee9"/>
    </linearGradient>
    <linearGradient id="Unbenannter_Verlauf_16-2" x1="1677.5" y1="740.05" x2="1677.5" y2="411.04" xlink:href="#Unbenannter_Verlauf_16"/>
    <linearGradient id="Unbenannter_Verlauf_16-3" x1="2004.95" y1="735.94" x2="2004.95" y2="412.21" xlink:href="#Unbenannter_Verlauf_16"/>
    <linearGradient id="Unbenannter_Verlauf_16-4" x1="2438.9" y1="728.9" x2="2438.9" y2="414.56" xlink:href="#Unbenannter_Verlauf_16"/>
    <linearGradient id="Unbenannter_Verlauf_16-5" x1="2893.73" y1="728.9" x2="2893.73" y2="293.68" xlink:href="#Unbenannter_Verlauf_16"/>
    <linearGradient id="Unbenannter_Verlauf_16-6" x1="3138.16" y1="728.9" x2="3138.16" y2="293.68" xlink:href="#Unbenannter_Verlauf_16"/>
    <linearGradient id="Unbenannter_Verlauf_16-7" x1="3360.93" y1="737.71" x2="3360.93" y2="413.97" xlink:href="#Unbenannter_Verlauf_16"/>
    <linearGradient id="Unbenannter_Verlauf_16-8" x1="3757.94" y1="728.9" x2="3757.94" y2="422.78" xlink:href="#Unbenannter_Verlauf_16"/>
    <linearGradient id="Unbenannter_Verlauf_16-9" x1="4152.56" y1="737.71" x2="4152.56" y2="413.97" xlink:href="#Unbenannter_Verlauf_16"/>
    <linearGradient id="Unbenannter_Verlauf_16-10" x1="4430.83" y1="728.9" x2="4430.83" y2="413.73" xlink:href="#Unbenannter_Verlauf_16"/>
  </defs>
  <title>Logo-TeamViewer-2016</title>
  <polygon class="cls-1" points="411.77 368.38 373.84 460.49 652.87 460.49 614.94 368.38 898.35 511.96 614.94 655.54 652.87 563.43 373.84 563.43 411.47 655.54 127.32 511.96 411.77 368.38"/>
  <path class="cls-2" d="M964.2,1024.08H60a60.18,60.18,0,0,1-60-60V60A60.18,60.18,0,0,1,60,0H964.2a60.18,60.18,0,0,1,60,60V964.08A60.18,60.18,0,0,1,964.2,1024.08ZM508.24,90C277.59,92,91.66,281.23,90,512,88.31,747,276.92,933.79,512,934,743.05,934.12,930,742,934,512,938.15,274.25,746,87.91,508.24,90Z"/>
  <g>
    <polygon class="cls-3" points="1360.28 728.9 1360.28 375.06 1234.11 375.06 1234.11 293.09 1589.53 293.09 1589.53 375.06 1463.37 375.06 1463.37 728.9 1360.28 728.9"/>
    <path class="cls-4" d="M1678.68,740.05c-26.62,0-76.13-5-108.61-38.74-26.39-27.53-39.76-67.77-39.76-119.61,0-66.69,21.57-115.47,64.1-145C1619.64,419.89,1649.56,411,1681,411c33,0,93,9.72,124.9,74.83,21.42,43.47,19.15,91.05,18.18,111.37l-0.26,5.5H1625.26c0.77,30.63,8.54,67.67,54.59,67.67,25.15,0,39.78-11.66,46-36.7l1.09-4.37h90l-0.52,6.26c-1,12.09-3.37,40.39-29.74,68.05C1764.78,726.78,1725.39,740.05,1678.68,740.05Zm45.16-203.44c-1.12-26.22-10.45-54.76-45.74-54.76-38.13,0-47.37,34.55-49.5,54.76h95.25Z"/>
    <path class="cls-5" d="M1969.06,735.94c-46.2,0-66.59-14.3-77.91-25.06-17.59-17.59-27.62-42.81-27.62-69.32,0-24.94,8.59-70.77,66.14-97.37,35.16-15.88,84.28-16.9,114-17-0.13-15.28-.9-23-3.79-31.72-6.92-19.7-28.91-20.7-33.25-20.7-11.63,0-22.13,5.2-28.1,13.92-5.44,8.42-5.44,16.58-5.44,23.15v5.77h-96.86l0.22-6c0.55-14.94,1.85-49.93,35.86-74.31,23.25-16.68,54.59-25.14,93.15-25.14,28.16,0,79.89,5.21,110,40.15,21.94,26.45,21.94,64.15,21.94,76.54L2138,648c0,28,2.26,52.22,6.91,73.93l1.5,7h-90.7L2054.9,724a230.26,230.26,0,0,1-2.67-25C2019.85,735.95,1983.58,735.94,1969.06,735.94Zm63.16-147.45c-35.12,0-72.64,11.32-72.64,43.09,0,17.57,11.41,36.48,36.47,36.48a43.48,43.48,0,0,0,32.62-15c13.12-16.16,14.83-36.17,15-64.17C2039.76,588.61,2035.93,588.5,2032.22,588.5Z"/>
    <path class="cls-6" d="M2581.85,728.9V548.84c0-36.68-7.5-61.12-44.1-61.12-44.12,0-47.62,37.68-47.62,86.94V728.9h-99V547.08c0-28.72-3.32-59.36-42.93-59.36-48.8,0-48.8,41.28-48.8,61.12V728.9h-99V482.53c0-16.48-.92-34-2.91-55.21l-0.59-6.31h95.6l2.22,28.8c13.6-15.17,39.26-35.26,86.91-35.26,31.25,0,71.73,8.83,93.75,49.11C2496,431,2527,415.15,2570,415.15c61.05,0,87.07,35.33,95.43,50.52,15.56,25.35,15.46,60,15.39,85.22v178h-99Z"/>
    <polygon class="cls-7" points="2868.88 728.9 2709.74 293.68 2763.75 293.68 2896.36 669.21 3027.25 293.68 3077.73 293.68 2920.4 728.9 2868.88 728.9"/>
    <path class="cls-8" d="M3114.78,728.9V422.78h46.76V728.9h-46.76Zm-2.94-379.67V293.68h52.63v55.56h-52.63Z"/>
    <path class="cls-9" d="M3357.11,737.71c-93.17,0-134.87-81.3-134.87-161.87,0-78,42.94-161.86,137.22-161.86,90.38,0,140.15,60.4,140.15,170.08v5.77H3272.14c1.82,35.46,15.75,104.05,96.12,104.05,38.34,0,71-27.09,79.45-65.87l1-4.55h49.08l-1.87,7.22C3477.31,702.7,3431.9,737.71,3357.11,737.71ZM3449.37,546c-6.08-56.16-38.38-88.21-89.33-88.21-55.08,0-80.52,46.16-86.25,88.21h175.58Z"/>
    <polygon class="cls-10" points="3845.97 728.9 3759.04 484.49 3670.42 728.9 3626.54 728.9 3514.33 422.78 3565.41 422.78 3649.98 661.23 3735.66 422.78 3785.47 422.78 3868.77 658.6 3950.38 422.78 4001.54 422.78 3887.51 728.9 3845.97 728.9"/>
    <path class="cls-11" d="M4148.74,737.71c-93.17,0-134.87-81.3-134.87-161.87,0-78,42.94-161.86,137.22-161.86,90.38,0,140.15,60.4,140.15,170.08v5.77H4063.77c1.82,35.46,15.75,104.05,96.12,104.05,38.34,0,71-27.09,79.45-65.87l1-4.55h49.08l-1.87,7.22C4268.94,702.7,4223.53,737.71,4148.74,737.71ZM4241,546c-6.08-56.16-38.38-88.21-89.33-88.21-55.08,0-80.52,46.16-86.25,88.21H4241Z"/>
    <path class="cls-12" d="M4357.74,728.9v-234c0.44-17.21-.81-35.07-1.92-50.83-0.37-5.22-.72-10.28-1-15.14l-0.36-6.11h48.05l1.15,28.52c14.24-22,37.44-36.32,62.31-37.32,3.48-.18,7-0.25,10.55-0.25,8.4,0,16.87.42,25.06,0.83l5.49,0.27,0.12,5.5v40.31l-6.25-.52c-2.89-.24-5.87-0.66-8.88-1.1a89.46,89.46,0,0,0-12.36-1.23c-46.63,0-74,32.16-75.21,88.23V728.9h-46.76Z"/>
  </g>
</svg>
